<svg width="1094.72" height="788.69" xmlns="http://www.w3.org/2000/svg" xmlns:xlink="http://www.w3.org/1999/xlink" data-name="Layer 1">
 <defs>
  <linearGradient y2="0.18895" x2="0.94483" y1="0.76193" x1="0.07215" id="f137b292-0aa2-40b3-a442-9a256144b6d8-461">
   <stop stop-opacity="0.25" stop-color="gray" offset="0"/>
   <stop stop-opacity="0.12" stop-color="gray" offset="0.54"/>
   <stop stop-opacity="0.1" stop-color="gray" offset="1"/>
  </linearGradient>
  <linearGradient xlink:href="#f137b292-0aa2-40b3-a442-9a256144b6d8-461" gradientTransform="matrix(-1, -0.04, -0.04, 1, 2349.24, 29.65)" y2="492.03" x2="1364.21" y1="820.42" x1="1364.21" id="ab747304-1bb2-44ed-8687-72ce94e318d2-462"/>
 </defs>
 <title>monitor</title>
 <g>
  <title>Layer 1</title>
  <g id="svg_1" opacity="0.5">
   <rect id="svg_2" fill="#d0d2d5" rx="14.12" height="134" width="134" y="367.69" x="960.72"/>
   <path id="svg_3" opacity="0.1" d="m1008.72,406.2l38,0s32,28 0,57l-38,0s-32,-26 0,-57z"/>
   <rect id="svg_4" fill="#3f3d56" height="15" width="5" y="422.19" x="1012.72"/>
   <rect id="svg_5" fill="#3f3d56" height="18" width="5" y="420.19" x="1037.72"/>
   <path id="svg_6" fill="#3f3d56" d="m1027.72,446.19l0,0a6,6 0 0 1 6,6l0,5a0,0 0 0 1 0,0l-12,0a0,0 0 0 1 0,0l0,-5a6,6 0 0 1 6,-6z"/>
  </g>
  <path id="svg_7" fill="url(#f137b292-0aa2-40b3-a442-9a256144b6d8-461)" d="m621.77,238.46c3.17,-0.07 6.33,0.17 9.49,0c2.89,-0.14 5.76,-0.61 8.65,-0.9c4.94,-0.49 9.92,-0.45 14.88,-0.66c3.26,-0.14 6.7,-0.46 9.34,-2.38c2.48,-1.79 3.86,-4.71 6.07,-6.83c9,-8.65 15.17,-20.22 23.17,-29.82c2,-2.44 4.09,-4.87 5.9,-7.48c3.47,-5 5.92,-10.67 8.36,-16.27a45.11,45.11 0 0 0 2.4,-6.42c0.45,-1.76 0.68,-3.58 1.28,-5.3c1.24,-3.52 4.22,-6.6 4.58,-10.31l-0.42,0.06c3.64,-4.63 3.08,-12.7 4.88,-18.63a80.28,80.28 0 0 1 4.17,-10.29l6.69,-14.57c1.15,-2.5 2.35,-5.08 4.34,-7c2.41,-2.33 5.77,-3.49 8.19,-5.81a12.71,12.71 0 0 0 3.14,-5.11l0.21,0.2c1.28,1.25 2.28,2.78 3.53,4.07c2.69,2.78 6.42,4.37 9.16,7.1c1.4,1.39 2.55,3.08 4.24,4.09a4.7,4.7 0 0 0 5.44,-0.67c4.91,-4.32 12.23,-4.72 17.54,-8.53c1.47,-1.06 2.75,-2.35 4.13,-3.51a56.32,56.32 0 0 1 10.67,-6.7a26.61,26.61 0 0 1 6.59,0.94c3.08,0.85 6.09,2.26 9.29,2.2a13.4,13.4 0 0 0 7.81,-3c1.63,-1.26 3.12,-3 3.36,-5a6.42,6.42 0 0 0 -2.4,-5.4c-0.22,-0.19 -0.45,-0.36 -0.68,-0.53a6.68,6.68 0 0 0 -2.41,-4.65a16,16 0 0 0 -5.45,-2.78a11.69,11.69 0 0 0 -3.44,-0.78a15.7,15.7 0 0 0 -5.34,1.25a51.34,51.34 0 0 1 -10.47,2.2c-0.63,0.06 -1.91,-0.07 -3,-0.08l-0.37,-1.06c-4.16,1.92 -9,0.34 -13.56,0.35c-2.22,0 -4.43,0.39 -6.64,0.53a59.92,59.92 0 0 1 -7.34,-0.16l-7.39,-0.47a87.11,87.11 0 0 1 -9.42,-1c-0.83,-1.69 -1.66,-3.38 -2.59,-5a46.27,46.27 0 0 0 -5.49,-7.63a26.52,26.52 0 0 1 2.64,-2l0.18,-0.11c0.23,-0.13 0.51,-0.27 0.82,-0.41a18.93,18.93 0 0 0 27.06,-17.08a14.5,14.5 0 0 0 1.6,-0.73c0.3,-0.16 0.6,-0.33 0.89,-0.52l0.43,-0.29a8.34,8.34 0 0 0 0.78,-0.67c0.12,-0.12 0.24,-0.24 0.35,-0.37a4.78,4.78 0 0 0 0.57,-0.84l0,0c0.06,-0.12 0.12,-0.23 0.17,-0.35s0,-0.09 0.05,-0.14s0.07,-0.18 0.1,-0.26s0,-0.12 0.05,-0.18l0.06,-0.24a1.29,1.29 0 0 0 0,-0.19c0,-0.08 0,-0.16 0,-0.23l0,-0.21a1.64,1.64 0 0 1 0,-0.22a1.7,1.7 0 0 0 0,-0.22c0,-0.07 0,-0.15 0,-0.22a1.62,1.62 0 0 0 0,-0.22l0,-0.27a1.79,1.79 0 0 0 0,-0.23c0,-0.07 0,-0.14 0,-0.21l0,-0.24l0,-0.2c0,-0.09 0,-0.18 0,-0.26a1.16,1.16 0 0 0 0,-0.18a2.33,2.33 0 0 0 0,-0.28c0,-0.06 0,-0.11 0,-0.16s0,-0.2 -0.07,-0.3l0,-0.14l-0.09,-0.32l0,-0.12c0,-0.11 -0.07,-0.22 -0.1,-0.33l0,-0.1l-0.12,-0.36l0,-0.06c0,-0.17 -0.11,-0.35 -0.17,-0.52c-0.75,-2.16 -1.56,-4.31 -2.42,-6.43a15.64,15.64 0 0 0 -2.78,-4.86c-1.77,-1.88 -4.31,-2.82 -6.43,-4.32c-2.5,-1.76 -4.37,-4.25 -6.49,-6.47s-4.69,-4.23 -7.74,-4.6a15.16,15.16 0 0 0 -7.06,1.29c-18.37,6.78 -33.41,20.14 -49.88,30.74c-6.41,4.13 -13.59,8 -21.18,7.47l6.7,10.64c0.32,0.52 0.65,1 1,1.54s0.7,1 1.07,1.5a12.07,12.07 0 0 0 3.51,3.22a7.69,7.69 0 0 0 1.08,0.52a8.88,8.88 0 0 0 1,0.31c2.39,0.57 5,0.09 7.42,-0.39c0.83,-0.16 1.66,-0.33 2.48,-0.52l1,-0.28l0.16,0c0,0.06 0,0.11 0,0.16c-0.56,1 -1.09,1.91 -1.56,2.9a60.81,60.81 0 0 0 -3.57,11.12c-1.89,7.5 -3.79,15.16 -3.29,22.86c0.17,2.6 0.61,5.26 -0.14,7.76c-0.36,1.23 -1,2.49 -0.66,3.71a17.12,17.12 0 0 1 0.92,2.18c0.16,1.16 -0.76,2.16 -1.42,3.12s-1,2.49 -0.06,3.16a5.39,5.39 0 0 0 -3.57,4.45a3.79,3.79 0 0 1 -0.34,1.71a4.23,4.23 0 0 1 -1,0.93a5.39,5.39 0 0 0 -1.87,3.36c-1.93,0 -3.56,1.88 -5.32,3a21.45,21.45 0 0 1 -4.85,1.76c-4.83,1.54 -9,4.71 -12.77,8.05c-2.1,1.83 -4.22,3.85 -5.14,6.47c-0.3,0.86 -0.46,1.76 -0.72,2.63a18.14,18.14 0 0 1 -2.32,4.74a34.23,34.23 0 0 1 -7,7.82a18.59,18.59 0 0 0 -3.6,3.86c-1.53,2.21 -4.64,2.87 -6.28,5a23.75,23.75 0 0 1 -2,3c-1.27,1.2 -3.19,1.3 -4.81,2c-3.79,1.57 -5.54,6 -8.92,8.34a0.94,0.94 0 0 1 -0.67,0.22c-0.29,0 -0.46,-0.35 -0.71,-0.52c-0.49,-0.33 -1.14,-0.08 -1.72,0.07s-1.36,0.09 -1.51,-0.49c-8.15,-4.94 -16.16,-10.3 -24.32,-15.24l-3.72,-2.25l-19.9,-12.06a1.48,1.48 0 0 0 -1.57,0l-0.62,0.43c-1,-1.06 -2.11,-2 -2.77,-2.78c-0.27,-0.31 -0.54,-0.62 -0.82,-0.92a1.22,1.22 0 0 0 0.53,-0.1a1,1 0 0 0 0.43,-1.3a3.26,3.26 0 0 0 -0.92,-1.17a22.15,22.15 0 0 1 -2.39,-2.73a25.24,25.24 0 0 0 -2.63,-3.44a4.83,4.83 0 0 0 -3.9,-1.55a6.33,6.33 0 0 0 -2.26,0.91a37.09,37.09 0 0 0 -7.5,5.75a0.79,0.79 0 0 0 -0.33,0.62c0,0.2 0.2,0.35 0.22,0.54a0.7,0.7 0 0 1 -0.19,0.5a20.93,20.93 0 0 1 -4.73,4.31q-3.81,2.85 -7.45,5.92a10.42,10.42 0 0 0 -3.48,4.25a8.31,8.31 0 0 0 0.61,5.9c1.66,3.91 4.57,7.15 7.45,10.28a3.64,3.64 0 0 0 1.91,1.34a2.43,2.43 0 0 0 1.73,-0.42c1.77,-1.16 2.06,-3.56 2.19,-5.66c0.05,-1 0.11,-1.92 0.17,-2.88a1.33,1.33 0 0 1 0.11,-0.56a1.4,1.4 0 0 1 0.61,-0.49l2.75,-1.45c-0.08,-0.13 -0.17,-0.26 -0.26,-0.39a11.21,11.21 0 0 1 6.49,-0.42c1.46,0.43 2.8,1.3 4.2,1.84a9.29,9.29 0 0 0 1,5.42c5.13,0.53 9.75,2.81 14.34,5.11a114.33,114.33 0 0 1 10.78,6.09q4.24,2.76 8.3,5.77c3.84,2.84 7.55,5.85 11.22,8.89a54.11,54.11 0 0 0 7.67,5.65c7.22,4.05 16.9,4.19 23.53,-0.86c8.36,-6.37 19,-9.68 28,-15.19a31.6,31.6 0 0 0 7.25,-5.57a4.94,4.94 0 0 1 -0.12,0.77c-0.54,2.49 -2.69,4.29 -3.5,6.81c-0.63,2 -0.4,4.31 -1.62,6c-0.93,1.29 -2.67,2.21 -2.72,3.8c0,0.44 0.13,0.88 0.13,1.32a4.13,4.13 0 0 1 -0.48,1.59c-1,2.25 -2.12,4.61 -4.17,6c-0.8,0.55 -1.82,1.05 -2,2a1.89,1.89 0 0 1 -0.21,0.79c-0.34,0.47 -1.09,0.22 -1.63,0.42c-0.75,0.28 -0.87,1.25 -1.17,2a3.24,3.24 0 0 1 -3.27,1.92c-6.83,-0.83 -13.54,2.26 -20.42,2.08c-2.37,-0.07 -4.73,-0.31 -7.11,-0.33c-7.3,-0.06 -14.45,2 -21.48,4a11.34,11.34 0 0 0 -1.42,4.5a17.37,17.37 0 0 1 -7.35,0.28a15.67,15.67 0 0 0 -1.84,-0.25a2.77,2.77 0 0 0 0.16,-1.42a40.15,40.15 0 0 0 -8.23,3.67c-1.71,1 -3.52,2.4 -3.68,4.37a6.57,6.57 0 0 0 0.32,2.24l0.93,3.53a3.72,3.72 0 0 0 0.83,1.77c0.31,0.3 0.72,0.48 1,0.8a3.14,3.14 0 0 1 0.54,1.27l0.78,3.06a19.46,19.46 0 0 1 0.62,3.11c0.09,1 0,1.92 0.07,2.88a29.93,29.93 0 0 0 0.69,4.7l1.11,5.54a18.91,18.91 0 0 0 1.31,4.5c0.47,1 1.1,1.86 1.48,2.86c0.3,0.77 0.44,1.59 0.8,2.32a6.19,6.19 0 0 0 2.9,2.68a3.23,3.23 0 0 0 1.41,0.44c1.42,0 2.44,-1.32 3.1,-2.58a15.6,15.6 0 0 0 2.07,-7.52c0,-1.06 -0.21,-2.11 -0.3,-3.17c-0.24,-3 0.62,-5.92 0.62,-8.91a1.75,1.75 0 0 0 -1.25,-1.82c0.09,-2.54 0.08,-5.23 1.42,-7.4a11.15,11.15 0 0 1 2.44,-2.65c0.37,1.18 0.78,2.35 1.24,3.49c7.61,-2.22 15.47,-4.36 23.44,-4.56zm162.59,-153.57c-0.54,0.2 -1.09,0.4 -1.65,0.58c-4.66,1.55 -10,3.06 -14.82,2a12.87,12.87 0 0 1 -4.06,-2l-0.35,-0.22c6.79,-1.19 13.88,-0.9 20.88,-0.36z"/>
  <path id="svg_8" fill="#fbbebe" d="m811.42,74.6a15.45,15.45 0 0 1 5.31,-1.23a11.65,11.65 0 0 1 3.42,0.79a16.08,16.08 0 0 1 5.44,2.8a6.51,6.51 0 0 1 2.41,5.4c-0.23,2 -1.71,3.73 -3.33,5a13.27,13.27 0 0 1 -7.76,3c-3.18,0.05 -6.18,-1.38 -9.25,-2.23a26.56,26.56 0 0 0 -6.86,-1a15,15 0 0 1 -3.49,-0.22a3.74,3.74 0 0 1 -2.68,-2.06a5.28,5.28 0 0 1 0,-3c0.23,-1.24 0.19,-4.18 1.29,-4.92c0.88,-0.6 4,-0.12 5.08,-0.21a50.14,50.14 0 0 0 10.42,-2.12z"/>
  <path id="svg_9" fill="#f86d70" d="m740.03,54.47a46.24,46.24 0 0 1 7.75,10c3.52,6.14 5.76,13.28 11.06,18a37.32,37.32 0 0 0 4.47,3.23a12.9,12.9 0 0 0 4.06,2c4.76,1.07 10.1,-0.42 14.74,-2a93.35,93.35 0 0 0 13.33,-6a11,11 0 0 0 1.56,5.48c1.11,1.57 3.38,2.49 5,1.5a59.3,59.3 0 0 0 -11.53,7.13c-1.37,1.16 -2.64,2.44 -4.1,3.49c-5.27,3.79 -12.56,4.17 -17.43,8.47a4.69,4.69 0 0 1 -5.41,0.65c-1.69,-1 -2.84,-2.72 -4.23,-4.11c-2.74,-2.74 -6.46,-4.34 -9.15,-7.13c-1.25,-1.29 -2.25,-2.82 -3.53,-4.08c-1.83,-1.8 -4.21,-3 -5.89,-5c-1.25,-1.47 -2,-3.26 -3.17,-4.83c-1,-1.36 -2.18,-2.55 -3.07,-4c-2.18,-3.47 -2.16,-8 -0.91,-11.89s4.12,-7.52 6.45,-10.91z"/>
  <path id="svg_10" opacity="0.1" d="m740.03,54.47a46.24,46.24 0 0 1 7.75,10c3.52,6.14 5.76,13.28 11.06,18a37.32,37.32 0 0 0 4.47,3.23a12.9,12.9 0 0 0 4.06,2c4.76,1.07 10.1,-0.42 14.74,-2a93.35,93.35 0 0 0 13.33,-6a11,11 0 0 0 1.56,5.48c1.11,1.57 3.38,2.49 5,1.5a59.3,59.3 0 0 0 -11.53,7.13c-1.37,1.16 -2.64,2.44 -4.1,3.49c-5.27,3.79 -12.56,4.17 -17.43,8.47a4.69,4.69 0 0 1 -5.41,0.65c-1.69,-1 -2.84,-2.72 -4.23,-4.11c-2.74,-2.74 -6.46,-4.34 -9.15,-7.13c-1.25,-1.29 -2.25,-2.82 -3.53,-4.08c-1.83,-1.8 -4.21,-3 -5.89,-5c-1.25,-1.47 -2,-3.26 -3.17,-4.83c-1,-1.36 -2.18,-2.55 -3.07,-4c-2.18,-3.47 -2.16,-8 -0.91,-11.89s4.12,-7.52 6.45,-10.91z"/>
  <path id="svg_11" fill="#fbbebe" d="m562.3,146.82a10.36,10.36 0 0 0 -2.82,-2.55a8.54,8.54 0 0 0 -5.27,-0.54c-4.46,0.68 -8.6,2.72 -12.52,5c-3.16,1.81 -6.3,3.82 -8.56,6.67a6.85,6.85 0 0 0 -1.51,3a6.18,6.18 0 0 0 0.23,2.73a6.6,6.6 0 0 0 3.57,4.62c2.09,0.82 4.42,-0.05 6.52,-0.85c2.82,-1.09 5.92,-2.1 8.82,-1.24c2.15,0.64 4,2.27 6.27,2.33c2.67,0.08 4.83,-2.08 6.53,-4.14c1.47,-1.8 4.69,-5.05 4.48,-7.58s-4.16,-5.64 -5.74,-7.45z"/>
  <path id="svg_12" fill="#fbbebe" d="m596,224.65a17.27,17.27 0 0 1 -7.5,0.31c-1.52,-0.28 -3.38,-0.64 -4.35,0.55a3.58,3.58 0 0 0 -0.61,1.48c-2.49,10.19 -0.21,21 4,30.65a0.94,0.94 0 0 0 0.28,0.42c0.27,0.2 0.64,0.06 0.95,-0.07a11.28,11.28 0 0 0 2.83,-1.65c1.92,-1.74 2.33,-4.57 2.42,-7.16s0.05,-5.33 1.39,-7.55c1.68,-2.75 5.19,-4.09 6.57,-7c1.11,-2.37 0.53,-5.18 -0.45,-7.6c-0.33,-0.84 -0.46,-3 -1.24,-3.41s-3.4,0.79 -4.29,1.03z"/>
  <path id="svg_13" fill="#f86d70" d="m562.01,145.8a1,1 0 0 0 0.42,-1.3a3.38,3.38 0 0 0 -0.92,-1.18a20.69,20.69 0 0 1 -2.38,-2.74a27.68,27.68 0 0 0 -2.63,-3.44a4.85,4.85 0 0 0 -3.89,-1.56a6,6 0 0 0 -2.25,0.9a36.36,36.36 0 0 0 -7.45,5.72c-0.17,0.17 -0.36,0.38 -0.32,0.62s0.2,0.34 0.22,0.54a0.69,0.69 0 0 1 -0.18,0.49a20.68,20.68 0 0 1 -4.7,4.29q-3.78,2.84 -7.4,5.9a10.3,10.3 0 0 0 -3.45,4.23a8.41,8.41 0 0 0 0.63,5.89c1.67,3.92 4.58,7.16 7.45,10.31a3.78,3.78 0 0 0 1.92,1.35a2.42,2.42 0 0 0 1.72,-0.42c1.75,-1.15 2,-3.55 2.15,-5.64l0.16,-2.89a1.29,1.29 0 0 1 0.11,-0.55a1.35,1.35 0 0 1 0.61,-0.49l2.72,-1.44a8.77,8.77 0 0 0 -8,-4.16a3,3 0 0 1 -2.14,-0.29a1.76,1.76 0 0 1 0,-2.44a5.38,5.38 0 0 1 2.36,-1.31c7.17,-2.63 13.65,-6.85 20.61,-10a5.29,5.29 0 0 1 2.46,-0.57c0.7,0.05 1.52,0.46 2.17,0.18z"/>
  <path id="svg_14" fill="#f86d70" d="m590.26,250.52c-0.32,0.6 -0.43,1.3 -0.78,1.89s-1.11,1 -1.7,0.7a1.75,1.75 0 0 1 -0.66,-0.89a37.36,37.36 0 0 1 -2.45,-22.06a13.91,13.91 0 0 1 1.07,-3.52c0.53,-1.08 1.3,-2.18 1.08,-3.36a39.64,39.64 0 0 0 -8.18,3.64c-1.7,1 -3.49,2.39 -3.65,4.35a6.84,6.84 0 0 0 0.33,2.24l0.94,3.53a3.65,3.65 0 0 0 0.84,1.77c0.3,0.3 0.71,0.49 1,0.81a3,3 0 0 1 0.54,1.26l0.79,3.06a19.6,19.6 0 0 1 0.63,3.12c0.09,1 0,1.92 0.08,2.88a31,31 0 0 0 0.7,4.69l1.13,5.54a19.26,19.26 0 0 0 1.32,4.5c0.47,1 1.1,1.86 1.49,2.87c0.29,0.77 0.44,1.59 0.8,2.32a6.29,6.29 0 0 0 2.89,2.69a3.39,3.39 0 0 0 1.41,0.45c1.41,0.05 2.42,-1.32 3.08,-2.58a15.56,15.56 0 0 0 2,-7.5c0,-1.06 -0.22,-2.11 -0.31,-3.17c-0.25,-3 0.59,-5.91 0.58,-8.9c0.02,-2.8 -3.94,-2.27 -4.97,-0.33z"/>
  <path id="svg_15" fill="#fbbebe" d="m736.98,76.29a22.08,22.08 0 0 1 -8,-6.25a38.19,38.19 0 0 1 -3,-4.45a135.15,135.15 0 0 1 -9.75,-20.07c4.26,0.87 8.73,1.66 12.92,0.46a17.84,17.84 0 0 0 6,-3.18a51.87,51.87 0 0 0 6.32,-6.17a60.76,60.76 0 0 0 5,8c1.07,1.44 4.69,4.37 4.42,6.33s-4.27,2.94 -5.89,3.87l-0.17,0.11a22.68,22.68 0 0 0 -6.15,5.73c-3.14,4.46 -4.23,10.68 -1.7,15.62z"/>
  <path id="svg_16" opacity="0.1" d="m745.08,54.79a18.74,18.74 0 0 1 -9.85,-12a51.87,51.87 0 0 0 6.32,-6.17a60.76,60.76 0 0 0 5,8c1.07,1.44 4.69,4.37 4.42,6.33s-4.27,2.91 -5.89,3.84z"/>
  <circle id="svg_17" fill="#fbbebe" r="18.73" cy="37.53" cx="754.08"/>
  <path id="svg_18" fill="#f86d70" d="m713.11,154.2a8.74,8.74 0 0 1 -8.62,0.21a16.59,16.59 0 0 1 -3.72,-3.13c-6.15,-6.31 -12,-13 -16.11,-20.83a14.44,14.44 0 0 1 -1.82,-5.37a5.9,5.9 0 0 1 1.93,-5.12a4.16,4.16 0 0 0 1,-0.93a3.75,3.75 0 0 0 0.33,-1.7a5.31,5.31 0 0 1 3.54,-4.43c-1,-0.68 -0.6,-2.19 0.05,-3.16s1.56,-2 1.4,-3.12a17.12,17.12 0 0 0 -0.92,-2.18c-0.36,-1.22 0.29,-2.48 0.64,-3.7c0.73,-2.5 0.29,-5.16 0.11,-7.76c-0.53,-7.7 1.34,-15.34 3.19,-22.83a61.24,61.24 0 0 1 3.52,-11.1c0.47,-1 1,-2 1.54,-2.89a76.83,76.83 0 0 1 6.29,-8.75a11.36,11.36 0 0 1 4.29,-3.84a4.24,4.24 0 0 1 0.5,-0.18a10.88,10.88 0 0 1 3.82,-0.29c3.38,0.21 6.93,1 9.34,3.38s3.19,5.72 4.28,8.94a24.63,24.63 0 0 0 1.26,3.15c1.59,3.16 4.18,5.68 6.73,8.13l2.77,2.67c1.39,1.34 3.8,1 5.11,2.41a6.48,6.48 0 0 1 1.17,2.24a34.75,34.75 0 0 1 2.55,11.33a18.75,18.75 0 0 1 -0.15,2.59a13.64,13.64 0 0 1 -3.79,8c-2.4,2.31 -5.74,3.45 -8.13,5.77c-2,1.92 -3.16,4.49 -4.3,7q-3.3,7.26 -6.61,14.54a82.39,82.39 0 0 0 -4.11,10.25c-2.08,6.99 -0.9,16.85 -7.08,20.7z"/>
  <path id="svg_19" fill="#434175" d="m655.36,236.6c-4.94,0.2 -9.89,0.14 -14.81,0.61c-2.87,0.28 -5.73,0.75 -8.61,0.87c-3.14,0.14 -6.29,-0.11 -9.44,-0.05c-7.93,0.17 -15.75,2.28 -23.38,4.46a44.4,44.4 0 0 1 -3.31,-16.57a10.57,10.57 0 0 1 0,-1.13a11.37,11.37 0 0 1 1.41,-4.58c7,-2 14.1,-4 21.37,-3.9c2.37,0 4.72,0.28 7.08,0.35c6.85,0.21 13.51,-2.86 20.31,-2a3.2,3.2 0 0 0 3.25,-1.91c0.29,-0.74 0.41,-1.71 1.16,-2c0.54,-0.2 1.28,0.05 1.62,-0.41a2.1,2.1 0 0 0 0.21,-0.79c0.2,-1 1.21,-1.45 2,-2c2,-1.38 3.13,-3.74 4.13,-6a4.07,4.07 0 0 0 0.47,-1.58c0,-0.44 -0.14,-0.88 -0.13,-1.33c0,-1.58 1.77,-2.49 2.69,-3.78c1.21,-1.7 1,-4 1.59,-6c0.8,-2.52 2.93,-4.31 3.46,-6.79a4.94,4.94 0 0 0 0.12,-0.77a31.32,31.32 0 0 1 -7.21,5.54c-8.88,5.47 -19.5,8.74 -27.79,15.07c-6.58,5 -16.22,4.85 -23.42,0.78a54.16,54.16 0 0 1 -7.66,-5.67c-3.66,-3 -7.36,-6.07 -11.19,-8.93q-4,-3 -8.29,-5.79a114.13,114.13 0 0 0 -10.74,-6.29c-4.58,-2.32 -9.19,-4.62 -14.29,-5.17a10.53,10.53 0 0 1 -0.28,-8.64a29.14,29.14 0 0 1 4.68,-7.55a21.78,21.78 0 0 1 5.36,-5.47a1.46,1.46 0 0 1 1.56,0l19.82,12.17l3.71,2.27c8.13,5 16.13,10.35 24.26,15.32c0.15,0.57 0.94,0.64 1.51,0.49s1.22,-0.39 1.71,-0.06c0.24,0.16 0.41,0.46 0.71,0.52a1,1 0 0 0 0.66,-0.22c3.36,-2.31 5.08,-6.75 8.85,-8.3c1.61,-0.66 3.52,-0.76 4.78,-2a22.71,22.71 0 0 0 2,-3c1.63,-2.13 4.72,-2.77 6.23,-5a18.35,18.35 0 0 1 3.57,-3.84a33.83,33.83 0 0 0 7,-7.79a18.08,18.08 0 0 0 2.29,-4.72c0.26,-0.87 0.42,-1.77 0.71,-2.63c0.91,-2.62 3,-4.63 5.09,-6.45c3.79,-3.32 7.88,-6.47 12.68,-8a21.44,21.44 0 0 0 4.83,-1.75c1.93,-1.18 3.7,-3.37 5.91,-2.86a5,5 0 0 1 2.19,1.38a69.61,69.61 0 0 1 7.45,8.53q5.35,6.81 10.69,13.63a15.75,15.75 0 0 0 4.19,4.15a11.49,11.49 0 0 0 7.75,1c-0.35,3.71 -3.3,6.77 -4.52,10.29c-0.59,1.71 -0.82,3.53 -1.26,5.28a43.25,43.25 0 0 1 -2.37,6.41c-2.4,5.59 -4.82,11.21 -8.26,16.23c-1.78,2.61 -3.83,5 -5.84,7.45c-7.93,9.57 -14,21.11 -23,29.72c-2.18,2.11 -3.56,5 -6,6.81c-2.65,1.96 -6.07,2.26 -9.26,2.39z"/>
  <path id="svg_20" opacity="0.1" d="m693.04,109.72a5.43,5.43 0 0 0 -2.5,0.75c1.83,-0.64 4.06,1.07 5.75,0.26c0.79,-0.38 0.67,-0.49 0,-0.72c-1.01,-0.34 -2.23,-0.03 -3.25,-0.29z"/>
  <rect id="svg_21" transform="rotate(-19.55 -165.92 317.79)" fill="#d0d2d5" height="14" width="78" y="826.20001" x="822.07"/>
  <path id="svg_22" transform="rotate(-19.55 -173.65 327.59)" fill="#d0d2d5" d="m838.92001,863.36l71,0a7,7 0 0 1 7,7l0,0a7,7 0 0 1 -7,7l-71,0a0,0 0 0 1 0,0l0,-14a0,0 0 0 1 0,0z"/>
  <path id="svg_23" transform="rotate(-19.55 -178.14 307.13)" fill="#3f3d56" d="m785.48,803.68l17.3,0a58,58 0 0 1 58,58l0,17.3a22.68,22.68 0 0 1 -22.68,22.68l-52.62,0a22.68,22.68 0 0 1 -22.68,-22.68l0,-52.62a22.68,22.68 0 0 1 22.68,-22.68z"/>
  <path id="svg_24" opacity="0.1" d="m692.14,119.48a3.88,3.88 0 0 0 -2.11,-0.13a4.46,4.46 0 0 0 -2.75,1.35a1.5,1.5 0 0 0 1.23,0a7.27,7.27 0 0 1 2,-0.22c0.58,0 2.31,0.64 2.76,0.36c0.66,-0.43 -0.68,-1.19 -1.13,-1.36z"/>
  <path id="svg_25" opacity="0.1" d="m747.13,87.94a19.42,19.42 0 0 1 -4.28,-2.06c-3.51,-2.23 -6.46,-5.26 -9.93,-7.54a55.25,55.25 0 0 0 -5.43,-3l-11.71,-6a11.87,11.87 0 0 0 -2.84,-1.16c-1.91,-0.42 -4.06,0.86 -6,0.59a7.23,7.23 0 0 1 -4.88,-3.37a17.57,17.57 0 0 1 -2.2,-5.67a29.09,29.09 0 0 1 -0.67,-3.59a16,16 0 0 1 -0.07,-3.79a9.48,9.48 0 0 1 3.3,-6.46a12.09,12.09 0 0 1 4.64,-2a19.37,19.37 0 0 1 3.21,-0.53a11.43,11.43 0 0 1 1.85,0c4.42,0.35 8.16,3.35 11.11,6.65c1.55,1.74 3,3.61 4.48,5.38a24.63,24.63 0 0 0 1.26,3.15c1.59,3.16 4.18,5.68 6.73,8.13l2.77,2.67c1.39,1.34 3.8,1 5.11,2.41a6.48,6.48 0 0 1 1.17,2.24a34.75,34.75 0 0 1 2.53,11.36a18.75,18.75 0 0 1 -0.15,2.59z"/>
  <path id="svg_26" opacity="0.1" d="m656.06,215.92l-60.26,8.87a11.37,11.37 0 0 1 1.41,-4.58c7,-2 14.1,-4 21.37,-3.9c2.37,0 4.72,0.28 7.08,0.35c6.85,0.21 13.51,-2.86 20.31,-2a3.2,3.2 0 0 0 3.25,-1.91c0.29,-0.74 0.41,-1.71 1.16,-2c0.54,-0.2 1.28,0.05 1.62,-0.41a2.1,2.1 0 0 0 0.21,-0.79c0.2,-1 1.21,-1.45 2,-2c2,-1.38 3.13,-3.74 4.13,-6a4.07,4.07 0 0 0 0.47,-1.58c0,-0.44 -0.14,-0.88 -0.13,-1.33c0,-1.58 1.77,-2.49 2.69,-3.78c1.21,-1.7 1,-4 1.59,-6c0.8,-2.52 2.93,-4.31 3.46,-6.79l0.26,-0.34l10.26,-4l-20.88,38.19z"/>
  <ellipse id="svg_27" opacity="0.1" fill="#bf3412" ry="33" rx="425" cy="668.67" cx="425"/>
  <ellipse id="svg_28" opacity="0.1" fill="#bf3412" ry="35.77" rx="275" cy="752.92" cx="800.72"/>
  <path id="svg_29" stroke-width="12" stroke-miterlimit="10" stroke="#3f3d56" fill="none" d="m475.25,641.95l0.28,-14.16q20,-1.14 40,-1.52c7.74,-0.14 15.58,-0.19 23.07,1.75c5.19,1.35 10.1,3.63 15.22,5.23c10.2,3.18 21,3.6 31.71,3.89c10.39,0.29 21.24,0.39 30.57,-4.2c16.15,-8 22.94,-27.65 23.73,-45.64s-2.79,-36.12 -0.3,-54"/>
  <polygon id="svg_30" fill="#d0d2d5" points="511.81 669.66 333.62 667.38 334.14 662.81 342.76 587.42 499.24 587.42 510.76 662.81 511.64 668.52 511.81 669.66"/>
  <polygon id="svg_31" opacity="0.1" points="511.64 668.52 422.71 668.52 333.62 667.38 334.14 662.81 510.76 662.81 511.64 668.52"/>
  <rect id="svg_32" fill="#d0d2d5" height="5.71" width="236.45" y="663.95" x="303.92"/>
  <path id="svg_33" fill="#3f3d56" d="m765.96,134.62a14.87,14.87 0 0 0 -14.8,-15l-660.32,0a14.88,14.88 0 0 0 -14.8,15l0,400.26l689.92,0l0,-400.26z"/>
  <path id="svg_34" fill="#d0d2d5" d="m76.04,530.88l0,46.89a14.8,14.8 0 0 0 14.8,14.8l660.32,0a14.8,14.8 0 0 0 14.8,-14.8l0,-46.89l-689.92,0z"/>
  <rect id="svg_35" fill="#2f2e41" height="359.81" width="636.23" y="144.8" x="104.6"/>
  <path id="svg_36" fill="#bf3412" d="m424.43,574.78a15.43,15.43 0 0 0 12.13,-5.89l0,0a15.28,15.28 0 0 0 1.2,-1.77l-8.46,-1.39l9.15,0.07a15.44,15.44 0 0 0 0.29,-12.22l-12.27,6.37l11.32,-8.32a15.42,15.42 0 1 0 -25.43,17.25l0,0a15.4,15.4 0 0 0 12.07,5.9z"/>
  <polygon id="svg_37" opacity="0.1" points="439.85 592.56 510.94 663.95 500.03 592.56 439.85 592.56"/>
  <path id="svg_38" stroke-width="12" stroke-miterlimit="10" stroke="#3f3d56" fill="none" d="m745.18,141.87l38.18,-50.59c2.28,-3 4.63,-6.13 7.76,-8.29c9,-6.22 22.19,-2.54 29.72,5.43s10.69,19.06 13,29.78a316.11,316.11 0 0 1 7.16,75.15c-0.32,13.29 -1.51,26.72 -5.74,39.33c-6.42,19.18 -19.43,35.33 -29.26,53c-15.83,28.47 -22.46,66.44 -2.42,92.13c6.53,8.37 15.42,14.77 21.45,23.51c6.81,9.87 9.46,21.94 12,33.66c3.79,17.7 7.59,35.51 8.29,53.6c2.26,58.49 -31.09,116.93 -82.59,144.75c-35.75,19.32 -79,24.92 -110.09,51.12c-11,9.23 -20.48,22.8 -17.78,36.86c2.2,11.41 12.22,20.08 23.22,23.85s22.93,3.46 34.53,2.8a636.33,636.33 0 0 0 83,-10.25c23.23,-4.44 46.42,-8.27 66.67,-20.49a14,14 0 0 0 5.05,-4.53c1.31,-2.19 1.53,-4.84 1.71,-7.39c0.55,-7.51 1.07,-15.3 -1.58,-22.35c-3.09,-8.24 -10.14,-14.48 -13.52,-22.6s-2.77,-17.47 -0.58,-26c2.7,-10.54 7.61,-20.36 12.55,-30.05c4.81,-9.44 9.69,-18.85 15.35,-27.8c15.94,-25.16 37.72,-46 59.27,-66.55"/>
  <path id="svg_39" fill="#fbbebe" d="m808.36,69.35a15,15 0 0 1 5.31,-1.23a12,12 0 0 1 3.42,0.78a16.1,16.1 0 0 1 5.44,2.81a6.49,6.49 0 0 1 2.41,5.4c-0.23,2 -1.71,3.72 -3.33,5a13.22,13.22 0 0 1 -7.76,3c-3.18,0 -6.18,-1.38 -9.25,-2.24a26.55,26.55 0 0 0 -6.86,-1a15,15 0 0 1 -3.49,-0.23a3.73,3.73 0 0 1 -2.68,-2.05a5.38,5.38 0 0 1 0,-2.95c0.24,-1.24 0.2,-4.19 1.3,-4.93c0.88,-0.59 4,-0.11 5.08,-0.2a51.46,51.46 0 0 0 10.41,-2.16z"/>
  <path id="svg_40" fill="#f86d70" d="m794.49,70.35c-4.14,1.9 -9,0.32 -13.5,0.31c-2.21,0 -4.41,0.37 -6.61,0.5a59.44,59.44 0 0 1 -7.31,-0.19l-7.32,-0.5a62.44,62.44 0 0 1 -12.79,-1.76c-3.58,-4.22 -9.39,-6.08 -13.71,-9.52c-3.46,-2.76 -5.94,-6.52 -8.89,-9.83s-6.69,-6.3 -11.1,-6.65a16.41,16.41 0 0 0 -5.07,0.54a11.82,11.82 0 0 0 -4.63,2a9.44,9.44 0 0 0 -3.3,6.46a21.68,21.68 0 0 0 0.73,7.38a17.62,17.62 0 0 0 2.2,5.68a7.34,7.34 0 0 0 4.89,3.37c1.93,0.26 4.07,-1 6,-0.6a11.87,11.87 0 0 1 2.84,1.16l11.72,6a56.26,56.26 0 0 1 5.42,3c3.48,2.28 6.42,5.31 9.93,7.54s7.94,3.63 11.84,2.17c12,-4.47 25.52,-2.39 38.25,-1.28c-0.08,-0.24 0.44,-0.46 0.59,-0.66a10.75,10.75 0 0 0 2,-7.49c-0.31,-2.63 -1.31,-5.11 -2.18,-7.63z"/>
  <path id="svg_41" fill="#2f2e41" d="m774.36,36.66a6.85,6.85 0 0 0 3,-2.68c1.14,-2.11 0.44,-4.7 -0.34,-7s-1.57,-4.31 -2.44,-6.43a15.49,15.49 0 0 0 -2.78,-4.87c-1.77,-1.89 -4.3,-2.84 -6.41,-4.33c-2.5,-1.77 -4.37,-4.28 -6.48,-6.49s-4.69,-4.26 -7.73,-4.63a14.94,14.94 0 0 0 -6.82,1.27c-18.26,6.71 -33.19,20 -49.54,30.54c-6.36,4.11 -13.5,7.94 -21,7.39l6.71,10.66c1.71,2.73 3.63,5.62 6.63,6.79c2.65,1 5.61,0.5 8.39,0a22.61,22.61 0 0 0 6.39,-1.92c4,-2.17 6.57,-6.68 10.87,-8.25c3.21,-1.17 6.79,-0.45 10,0.67s6.36,2.64 9.74,3.1c6,0.81 12,-1.9 17,-5.4c3,-2.08 5.73,-4.47 9,-6a13.56,13.56 0 0 1 8,-1.41c3.03,0.42 4.81,0.56 7.81,-1.01z"/>
  <path id="svg_42" opacity="0.1" d="m777.36,33.98c1.12,-2.07 0.46,-4.61 -0.3,-6.84a6,6 0 0 1 -0.5,3.77a7,7 0 0 1 -3,2.68c-3,1.58 -4.82,1.44 -7.9,0.93a13.66,13.66 0 0 0 -8,1.41c-3.25,1.57 -6,4 -9,6c-5,3.5 -11,6.2 -17,5.39c-3.39,-0.45 -6.52,-2 -9.74,-3.1s-6.81,-1.84 -10,-0.67c-4.29,1.57 -6.83,6.09 -10.86,8.25a22.71,22.71 0 0 1 -6.39,1.92c-2.79,0.54 -5.75,1.07 -8.39,0c-3,-1.16 -4.92,-4.06 -6.64,-6.79l-4.75,-7.55c-0.38,0 -0.77,0 -1.15,0l6.71,10.66c1.71,2.73 3.63,5.62 6.63,6.79c2.65,1 5.61,0.5 8.39,0a22.61,22.61 0 0 0 6.39,-1.92c4,-2.17 6.57,-6.68 10.87,-8.25c3.21,-1.17 6.79,-0.45 10,0.67s6.36,2.64 9.74,3.1c6,0.81 12,-1.9 17,-5.4c3,-2.08 5.73,-4.47 9,-6a13.56,13.56 0 0 1 8,-1.41c3.08,0.5 4.9,0.64 7.89,-0.93a6.85,6.85 0 0 0 3,-2.71z"/>
  <path id="svg_43" fill="url(#ab747304-1bb2-44ed-8687-72ce94e318d2-462)" d="m829.06,718.01a10,10 0 0 1 2.18,-2.42c4.37,-4.12 6.4,-10.18 7.48,-16.12s1.39,-12 3.12,-17.81a57.24,57.24 0 0 1 3.52,-8.67c1,-2.14 2.25,-6.34 4.09,-7.83a2.66,2.66 0 0 1 1.26,-0.61a14.65,14.65 0 0 1 3.62,-4.82c2.86,-2.59 6.35,-4.65 8.26,-8a17.64,17.64 0 0 1 1.93,-3.29c1.29,-1.43 3.33,-2 4.52,-3.51c1.55,-1.94 1.2,-4.71 1,-7.19s0,-5.43 2.14,-6.72c1.28,-0.79 2.93,-0.72 4.26,-1.41c2,-1 2.79,-3.53 2.75,-5.78s-0.74,-4.44 -0.92,-6.68c-0.56,-7.16 4.16,-14.28 2.33,-21.22c-0.69,-2.63 -2.26,-4.92 -3.43,-7.36a17.2,17.2 0 0 1 -1,-2.54a35.57,35.57 0 0 1 -9.73,2.35c5.51,-12.36 4.11,-26.73 6.68,-40l-0.33,-0.46a20.71,20.71 0 0 1 -4.22,-11.85c0,-5 2.31,-9.57 3.35,-14.4c0.88,-4.12 0.85,-8.41 2,-12.45a38.32,38.32 0 0 1 3.17,-7.22c1.25,-2.32 2.56,-4.59 3.93,-6.83q1.92,-6.36 3.85,-12.72c1.8,-6 3.65,-12 7.15,-17.14c1.28,-1.89 1.67,-5.7 3.64,-6.84a8.73,8.73 0 0 1 5.2,-0.91c2.78,-1.56 5.22,-3.81 5.57,-6.89a6.68,6.68 0 0 0 -0.2,-2l-0.34,0c-4.41,-0.41 -6.63,-4.29 -8.92,-7.68c-3.71,-5.51 -2.29,-12.95 0,-19.2a13,13 0 0 1 3,-5.29c3.21,-3 8.29,-2.34 12.43,-3.79a42.64,42.64 0 0 1 4.11,-1.55c2.75,-0.65 5.63,0.26 8.15,1.52s4.87,2.92 7.51,3.92s5.9,1.79 6.55,4.5a4.91,4.91 0 0 1 -0.23,2.73a10.18,10.18 0 0 1 -3.08,4.45a17.82,17.82 0 0 1 -10.87,24.83c-0.76,1.21 -1.47,2.46 -2.12,3.73c-1.16,2.24 -2.14,4.88 -1.75,7.28a21.37,21.37 0 0 1 2,2.44c2.87,4 4.5,8.7 6,13.38a139.66,139.66 0 0 1 4.84,18.27c2.44,5.18 5.42,10.14 7.19,15.59a35.2,35.2 0 0 0 9.38,-1.25l8.44,-1.92c2.93,-0.66 6,-1.38 8.3,-3.32c1.22,-1 2.17,-2.33 3.41,-3.33s3.73,-2.15 5.09,-1.33a4,4 0 0 1 0.69,0.53c1.23,-2.5 9.1,7.73 3.72,8.74l0.35,1c0.71,2.07 2.22,4.59 1.84,6.75l-37.56,12.89a23.19,23.19 0 0 1 -7.56,1.67a12.21,12.21 0 0 1 -3,-0.4l0,1.92l0,0.07c-0.1,13.19 2,26.3 2.39,39.48c0.07,2.4 0,5 -1.52,6.88c-1.7,2.06 -4.72,2.46 -7.35,2a16.65,16.65 0 0 1 -1.86,-0.41a69.45,69.45 0 0 0 -1.92,10.1l-2.49,17.76a26.45,26.45 0 0 0 -0.39,5.54c0.29,4.18 2.5,7.94 4.1,11.81s2.55,8.5 0.44,12.11c-0.65,1.12 -1.56,2.08 -2.15,3.24a13.1,13.1 0 0 0 -1,5.67q-0.23,8.1 -0.44,16.18a1.89,1.89 0 0 1 1.26,0.26c2.08,1.61 1.85,9.33 2,11.72c0.16,4 0,8.08 0.22,12.12a71.1,71.1 0 0 0 2.68,16.13a10.29,10.29 0 0 0 2.29,4.61a9.82,9.82 0 0 0 4.06,2.11a46.58,46.58 0 0 0 15.42,2.1c2.11,-0.07 4.31,-0.27 6.27,0.53s3.54,3 2.83,5c-0.61,1.68 -2.46,2.48 -4.13,3.11a64.81,64.81 0 0 0 -11,5.06a29.31,29.31 0 0 1 -4.26,2.41a21.58,21.58 0 0 1 -4.38,1.08l-17.72,3c-3.63,0.63 -8,1 -10.31,-2c-1.25,-1.62 -1.43,-3.82 -1.37,-5.87c0.1,-4 0.9,-8.07 0.37,-12.07a36.46,36.46 0 0 0 -1.85,-6.94l-5.32,-15.72c-1.78,-5.27 -3.58,-10.58 -4.27,-16.1c-0.25,-2 -0.23,-4.27 1.3,-5.52a3.54,3.54 0 0 1 1.32,-0.68c0.06,-4.82 0.69,-9.65 0.42,-14.47c-0.07,-1.2 -0.19,-2.41 -0.29,-3.61a16.82,16.82 0 0 0 -2.48,2.92c-1.7,2.67 -2.33,6.21 -4.94,8c-2.22,1.52 -5.51,1.44 -7.07,3.64a10.26,10.26 0 0 0 -1.12,2.71a19.6,19.6 0 0 1 -4,6.35a32.91,32.91 0 0 1 -2.47,6.34q-2.21,4.65 -4.4,9.3c-1.57,3.32 -3.15,6.64 -5,9.78a27,27 0 0 0 -3.35,6.46c-1.41,4.94 0.88,10.36 4.53,14s8.44,5.73 13.16,7.68a3.62,3.62 0 0 1 1.35,0.8a2.58,2.58 0 0 1 0.6,1.74c0,2.31 -1.89,4.29 -4.07,5a15.27,15.27 0 0 1 -6.83,0.25c-12.78,-1.55 -25.52,-4.67 -36.82,-10.88a13.22,13.22 0 0 1 -4.4,-3.39a5.18,5.18 0 0 1 -0.78,-5.13z"/>
  <path id="svg_44" fill="#f86d70" d="m883.08,493.76q-3.19,4.9 -6,10.06a37.17,37.17 0 0 0 -3.17,7.16c-1.17,4 -1.13,8.28 -2,12.36c-1,4.8 -3.34,9.38 -3.34,14.29a20.5,20.5 0 0 0 4.22,11.77a56.63,56.63 0 0 0 8.82,9.1a187.62,187.62 0 0 0 12.48,-61.21c0.1,-2.9 0.11,-5.9 -0.94,-8.6c-0.66,-1.7 -3.77,-6.36 -5.78,-4.53c-0.73,0.67 -0.92,3.69 -1.37,4.69a36.23,36.23 0 0 1 -2.92,4.91z"/>
  <path id="svg_45" opacity="0.1" d="m883.08,493.76q-3.19,4.9 -6,10.06a37.17,37.17 0 0 0 -3.17,7.16c-1.17,4 -1.13,8.28 -2,12.36c-1,4.8 -3.34,9.38 -3.34,14.29a20.5,20.5 0 0 0 4.22,11.77a56.63,56.63 0 0 0 8.82,9.1a187.62,187.62 0 0 0 12.48,-61.21c0.1,-2.9 0.11,-5.9 -0.94,-8.6c-0.66,-1.7 -3.77,-6.36 -5.78,-4.53c-0.73,0.67 -0.92,3.69 -1.37,4.69a36.23,36.23 0 0 1 -2.92,4.91z"/>
  <path id="svg_46" fill="#fbbebe" d="m990.43,504.69c3.91,-0.65 8.25,-0.33 11.29,2.2a9.32,9.32 0 0 1 3.24,6.16c0.26,2.78 -1.35,6.06 -4.13,6.28a13.17,13.17 0 0 1 -2,-0.13a29.88,29.88 0 0 0 -5.24,0.43a21.42,21.42 0 0 1 -18.24,-7.36c-2.38,-2.94 0.76,-4.29 3.59,-4.89c3.86,-0.82 7.63,-2.03 11.49,-2.69z"/>
  <path id="svg_47" fill="#3f3d56" d="m923.55,595.01l-2.48,17.62a26,26 0 0 0 -0.38,5.5c0.29,4.15 2.49,7.88 4.09,11.72s2.56,8.43 0.45,12c-0.65,1.12 -1.57,2.06 -2.15,3.21a13,13 0 0 0 -1,5.64l-0.68,25a158.71,158.71 0 0 1 -23.18,-0.13a1.35,1.35 0 0 1 -0.86,-0.22a1.38,1.38 0 0 1 -0.29,-0.91c-0.34,-5.85 0.68,-11.71 0.35,-17.56c-0.12,-2.14 -0.43,-4.27 -0.46,-6.42c-0.13,-8.71 4.18,-17.24 2.88,-25.86a57.35,57.35 0 0 0 -1.6,-6.42c-4.11,-15 -3.24,-30.77 -2.34,-46.25a1.18,1.18 0 0 1 0.2,-0.7a1.23,1.23 0 0 1 0.55,-0.3a28.48,28.48 0 0 1 25.78,4.91c1.09,0.88 3.84,1.73 4.56,2.77c1,1.47 -0.32,2.92 -0.89,4.48a56.89,56.89 0 0 0 -2.55,11.92z"/>
  <path id="svg_48" opacity="0.1" d="m923.55,595.01l-2.48,17.62a26,26 0 0 0 -0.38,5.5c0.29,4.15 2.49,7.88 4.09,11.72s2.56,8.43 0.45,12c-0.65,1.12 -1.57,2.06 -2.15,3.21a13,13 0 0 0 -1,5.64l-0.68,25a158.71,158.71 0 0 1 -23.18,-0.13a1.35,1.35 0 0 1 -0.86,-0.22a1.38,1.38 0 0 1 -0.29,-0.91c-0.34,-5.85 0.68,-11.71 0.35,-17.56c-0.12,-2.14 -0.43,-4.27 -0.46,-6.42c-0.13,-8.71 4.18,-17.24 2.88,-25.86a57.35,57.35 0 0 0 -1.6,-6.42c-4.11,-15 -3.24,-30.77 -2.34,-46.25a1.18,1.18 0 0 1 0.2,-0.7a1.23,1.23 0 0 1 0.55,-0.3a28.48,28.48 0 0 1 25.78,4.91c1.09,0.88 3.84,1.73 4.56,2.77c1,1.47 -0.32,2.92 -0.89,4.48a56.89,56.89 0 0 0 -2.55,11.92z"/>
  <path id="svg_49" fill="#3f3d56" d="m877.18,589.69c1.17,2.43 2.74,4.7 3.43,7.31c1.83,6.89 -2.88,14 -2.32,21.06c0.18,2.23 0.87,4.4 0.92,6.63s-0.77,4.71 -2.75,5.73c-1.33,0.69 -3,0.62 -4.25,1.4c-2.11,1.28 -2.35,4.22 -2.14,6.67s0.55,5.21 -1,7.14c-1.19,1.49 -3.23,2.06 -4.51,3.47a17.3,17.3 0 0 0 -1.94,3.27c-1.91,3.33 -5.39,5.38 -8.25,8s-5.28,6.46 -4,10.08c0.94,2.67 3.58,4.31 6.12,5.56a64.93,64.93 0 0 0 14.57,5.15a3.51,3.51 0 0 0 1.67,0.08a3.64,3.64 0 0 0 1.46,-1c2.95,-2.89 6,-5.92 7.36,-9.81a10.27,10.27 0 0 1 1.12,-2.69c1.56,-2.18 4.84,-2.11 7.07,-3.61c2.6,-1.77 3.23,-5.29 4.93,-7.94c1.61,-2.5 4.19,-4.22 6,-6.56c3,-3.88 3.81,-9.05 6,-13.48c0.93,-1.89 2.12,-3.64 2.86,-5.61a30.4,30.4 0 0 0 1.37,-7.23c1.41,-11.68 5,-23.44 2.74,-35c-0.5,-2.55 -1.27,-5 -1.59,-7.62c-0.56,-4.54 0.32,-9.17 -0.35,-13.7a3.73,3.73 0 0 0 -1.51,-2.9a4.18,4.18 0 0 0 -1.72,-0.36a118.6,118.6 0 0 0 -17.78,0.41c-3,0.29 -6.37,0.9 -8.16,3.35c-1.53,2.09 -1.45,4.91 -2,7.46c-0.6,3.13 -2.19,4.85 -3.86,7.31s-0.72,4.9 0.51,7.43z"/>
  <path id="svg_50" fill="#2f2e41" d="m900.25,670.95c-1.58,0 -3.33,-0.09 -4.55,0.91c-1.52,1.24 -1.55,3.53 -1.3,5.49c0.7,5.47 2.49,10.74 4.28,16l5.32,15.61a35.87,35.87 0 0 1 1.85,6.88c0.53,4 -0.27,8 -0.37,12c0,2 0.13,4.22 1.38,5.83c2.26,2.9 6.67,2.56 10.3,1.94l17.71,-3a21.72,21.72 0 0 0 4.38,-1.07a29.68,29.68 0 0 0 4.25,-2.4a65.38,65.38 0 0 1 11,-5c1.66,-0.62 3.52,-1.42 4.12,-3.09c0.71,-2 -0.87,-4.19 -2.83,-5s-4.15,-0.6 -6.27,-0.53a46.72,46.72 0 0 1 -15.4,-2.09a9.61,9.61 0 0 1 -4.06,-2.09a10.12,10.12 0 0 1 -2.3,-4.57a71.27,71.27 0 0 1 -2.68,-16c-0.2,-4 -0.06,-8 -0.22,-12c-0.1,-2.37 0.13,-10 -2,-11.63c-1.59,-1.22 -8.14,2.15 -10.28,2.64a49.57,49.57 0 0 1 -12.33,1.17z"/>
  <path id="svg_51" fill="#2f2e41" d="m841.9,682.07c-1.72,5.74 -2,11.79 -3.11,17.68s-3.1,11.91 -7.47,16a9.69,9.69 0 0 0 -2.17,2.4a5.06,5.06 0 0 0 0.75,5.23a13.13,13.13 0 0 0 4.39,3.37c11.29,6.16 24,9.26 36.81,10.8a15.36,15.36 0 0 0 6.82,-0.24c2.18,-0.74 4.11,-2.7 4.07,-5a2.53,2.53 0 0 0 -0.6,-1.72a3.73,3.73 0 0 0 -1.35,-0.79c-4.72,-1.94 -9.52,-4.06 -13.16,-7.63s-5.94,-9 -4.53,-13.86a27.38,27.38 0 0 1 3.34,-6.41a106.05,106.05 0 0 0 5,-9.7l4.4,-9.23c1.28,-2.69 2.59,-5.47 2.8,-8.46a40.57,40.57 0 0 1 -16.21,-2.59a25.54,25.54 0 0 1 -6.67,-4c-1.7,-1.42 -3.25,-4.06 -5.54,-2.21c-1.84,1.48 -3,5.64 -4.09,7.76a59.48,59.48 0 0 0 -3.48,8.6z"/>
  <path id="svg_52" fill="#fbbebe" d="m906.36,452.89c-0.44,3.83 -4.16,6.37 -7.71,7.88l22.46,7.18c-1.45,-2.78 -0.27,-6.18 1.17,-9a50.81,50.81 0 0 1 4,-6.4c0.22,-0.31 0.47,-0.71 0.31,-1.06a1.12,1.12 0 0 0 -0.63,-0.49c-4.62,-2.06 -9.38,-4.19 -14.43,-4.94c-1.46,-0.22 -4.22,-0.8 -5.31,0.69s0.38,4.37 0.14,6.14z"/>
  <path id="svg_53" opacity="0.1" d="m906.36,452.89c-0.44,3.83 -4.16,6.37 -7.71,7.88l22.46,7.18c-1.45,-2.78 -0.27,-6.18 1.17,-9a50.81,50.81 0 0 1 4,-6.4c0.22,-0.31 0.47,-0.71 0.31,-1.06a1.12,1.12 0 0 0 -0.63,-0.49c-4.62,-2.06 -9.38,-4.19 -14.43,-4.94c-1.46,-0.22 -4.22,-0.8 -5.31,0.69s0.38,4.37 0.14,6.14z"/>
  <circle id="svg_54" fill="#fbbebe" r="17.62" cy="438.38" cx="919.45"/>
  <path id="svg_55" fill="#f86d70" d="m934.67,583.35c-1.7,2 -4.71,2.44 -7.34,2c-6.15,-1 -11.19,-5.53 -17.2,-7.16c-7.38,-2 -15.2,0.57 -22.16,3.71s-13.9,6.95 -21.52,7.55c6.89,-15.36 2.95,-33.85 9.53,-49.34c1.62,-3.78 3.87,-7.44 4.23,-11.53c0.45,-5.09 -2.09,-10 -2.48,-15.07c-0.36,-4.51 1,-9 2.29,-13.29l4.83,-15.85c1.8,-5.9 3.65,-11.91 7.14,-17c1.28,-1.87 1.68,-5.65 3.64,-6.79c4.28,-2.46 10.77,0.65 15.41,0.82s8.87,3.47 11.58,7.2c2.87,3.94 4.5,8.63 6,13.27a125.22,125.22 0 0 1 5.34,21.23c0.15,1.08 0.28,2.16 0.38,3.25c1,10.27 -0.46,20.6 -0.54,30.91c0,0 0,0 0,0.08c-0.09,13.08 2,26.09 2.4,39.17c0.06,2.43 0,5.04 -1.53,6.84z"/>
  <path id="svg_56" opacity="0.1" d="m933.8,537.35c-3.45,-0.87 -6.58,-3.09 -9.25,-5.53a39,39 0 0 1 -6.14,-6.95a50.28,50.28 0 0 1 -5.29,-11.16a129.34,129.34 0 0 1 -7,-32.28c-0.26,-3 -0.34,-6.21 1.45,-8.59a7.23,7.23 0 0 1 8.74,-2.13c2.37,1.16 3.9,3.49 5.31,5.71c2.82,4.43 5.65,8.9 7.46,13.82c0.8,2.18 1.39,4.43 2.17,6.62a61,61 0 0 0 2.74,6.33c0.15,1.08 0.28,2.16 0.38,3.25c0.93,10.22 -0.49,20.55 -0.57,30.91z"/>
  <path id="svg_57" fill="#f86d70" d="m907.61,470.9c-1.78,2.37 -1.7,5.62 -1.45,8.59a129.28,129.28 0 0 0 7,32.27a49.43,49.43 0 0 0 5.29,11.16a38.67,38.67 0 0 0 6.14,6.95c3.4,3.11 7.54,5.88 12.15,5.92a23.42,23.42 0 0 0 7.56,-1.65l37.51,-12.74c0.38,-2.15 -1.13,-4.64 -1.84,-6.7l-2,-5.94c-0.57,-1.63 -1.24,-3.4 -2.72,-4.29s-3.85,0.33 -5.09,1.32s-2.19,2.29 -3.4,3.3c-2.32,1.92 -5.37,2.63 -8.3,3.29l-8.43,1.9a35.6,35.6 0 0 1 -9.38,1.24c-2.35,-7.17 -6.82,-13.49 -9.35,-20.61c-0.78,-2.18 -1.38,-4.43 -2.18,-6.61c-1.81,-4.92 -4.64,-9.39 -7.45,-13.82c-1.41,-2.23 -2.94,-4.56 -5.31,-5.71a7.25,7.25 0 0 0 -8.75,2.13z"/>
  <path id="svg_58" fill="#2f2e41" d="m913.83,442.35a8.9,8.9 0 0 1 1.06,-3.29a2.79,2.79 0 0 1 3,-1.33c1.76,0.55 2.35,3.28 4.19,3.37c1.24,0.06 2.13,-1.2 2.52,-2.39s0.6,-2.52 1.53,-3.36a5.61,5.61 0 0 1 2.18,-1c4.27,-1.35 8.68,-3.85 10.1,-8.1a4.9,4.9 0 0 0 0.23,-2.7c-0.65,-2.69 -4,-3.5 -6.55,-4.48s-5,-2.62 -7.5,-3.88s-5.4,-2.16 -8.15,-1.52a40.67,40.67 0 0 0 -4.11,1.54c-4.14,1.43 -9.22,0.77 -12.43,3.75a13,13 0 0 0 -3,5.25c-2.25,6.21 -3.66,13.6 0.05,19.06c2.28,3.37 4.51,7.22 8.91,7.62c5.12,0.46 7.16,-4.22 7.97,-8.54z"/>
  <g id="svg_59" opacity="0.1">
   <path id="svg_60" d="m921.65,436.59c0.39,-1.18 0.6,-2.52 1.52,-3.36a5.83,5.83 0 0 1 2.18,-1c4.28,-1.35 8.68,-3.84 10.11,-8.1a4.89,4.89 0 0 0 0.22,-2.7a3.39,3.39 0 0 0 -0.53,-1.19c1.63,0.7 3.05,1.65 3.45,3.31a4.9,4.9 0 0 1 -0.23,2.7c-1.42,4.25 -5.83,6.75 -10.1,8.1a5.61,5.61 0 0 0 -2.18,1c-0.93,0.84 -1.14,2.18 -1.53,3.36s-1.28,2.45 -2.52,2.39s-1.84,-1.19 -2.63,-2.14c1.09,-0.14 1.87,-1.28 2.24,-2.37z"/>
   <path id="svg_61" d="m902.93,448.75c5.14,0.47 7.17,-4.2 8,-8.52a8.9,8.9 0 0 1 1.06,-3.29a2.78,2.78 0 0 1 3,-1.32c0.95,0.29 1.56,1.23 2.21,2a3,3 0 0 0 -2.26,1.4a8.9,8.9 0 0 0 -1.06,3.29c-0.81,4.32 -2.85,9 -8,8.52a8.2,8.2 0 0 1 -5.28,-2.73a7.45,7.45 0 0 0 2.33,0.65z"/>
  </g>
  <path id="svg_62" fill="#bf3412" d="m170.78,650.29l19.14,-11.26a46.29,46.29 0 0 0 -9.79,-11.7l-36.11,11.23l28.34,-16.64a46,46 0 0 0 -68.1,40.35c0,25.4 20.59,26.29 46,26.29s46,-0.89 46,-26.29a45.71,45.71 0 0 0 -4,-18.66l-21.48,6.68z"/>
  <path id="svg_63" opacity="0.1" d="m175.65,674.99a35.81,35.81 0 0 0 -6.78,-5.33c-3.48,-2.31 -7.07,-4.67 -11.17,-5.45c-3.6,-0.69 -7.31,-0.11 -11,-0.31a25.65,25.65 0 0 1 -16.81,-7.71c-2.61,-2.7 -4.67,-6 -7.81,-8.09c-3.39,-2.22 -7.69,-2.7 -11.71,-2.15a31.2,31.2 0 0 0 -3.46,0.71a45.9,45.9 0 0 0 -2.72,15.61c0,25.4 20.59,26.29 46,26.29c12.33,0 23.52,-0.21 31.78,-3.33l-1.38,-2.58a36.08,36.08 0 0 0 -4.94,-7.66z"/>
  <path id="svg_64" fill="#bf3412" d="m583.96,714.6l-25.39,-14.93a61.14,61.14 0 0 1 13,-15.52l47.89,14.89l-37.53,-22.06a61,61 0 0 1 90.31,53.5c0,33.69 -27.31,34.86 -61,34.86s-61,-1.17 -61,-34.86a60.84,60.84 0 0 1 5.23,-24.75l28.49,8.87z"/>
  <path id="svg_65" opacity="0.1" d="m577.49,747.35a47.57,47.57 0 0 1 9,-7.07c4.61,-3.06 9.38,-6.18 14.81,-7.22c4.77,-0.91 9.69,-0.14 14.54,-0.42a34.09,34.09 0 0 0 22.3,-10.21c3.46,-3.59 6.19,-8 10.36,-10.73c4.49,-3 10.19,-3.59 15.52,-2.85a38.27,38.27 0 0 1 4.6,0.94a60.88,60.88 0 0 1 3.6,20.69c0,33.69 -27.31,34.86 -61,34.86c-16.35,0 -31.19,-0.27 -42.15,-4.41l1.83,-3.42c1.91,-3.57 3.85,-7.16 6.59,-10.16z"/>
 </g>
</svg>