<svg width="657.03596" height="776.13897" xmlns="http://www.w3.org/2000/svg" data-name="Layer 1">

 <g>
  <title>Layer 1</title>
  <path id="svg_1" fill="#f0f0f0" d="m645.50109,760.66782a50.79382,50.79382 0 0 1 -13.58984,12.63c-1.12012,0.71 -2.27,1.38 -3.43994,2l-27.52979,0c0.32959,-0.66 0.64991,-1.33 0.96,-2a95.35446,95.35446 0 0 0 -19.84034,-109.34c16.64014,5.14 32.02,15.16 42.08008,29.37006a64.46956,64.46956 0 0 1 10.23,23a96.27571,96.27571 0 0 0 -7.66992,-48.41c13.50977,10.99 24.03027,26.04 28.04,42.98c4.00975,16.94993 1.10009,35.75993 -9.24025,49.76994z"/>
  <path fill="#3f3d56" d="m656.65397,776.13896l-257.738,0l0,-2.106l258.12,0l-0.382,2.106z" data-name="Path 2533" id="b35682e1-9f03-403a-b8b0-c3d37d0d1380-596"/>
  <path id="svg_2" fill="#bf3412" d="m308.74797,263.26948c0,38.64 -13.5,71.63 -39.19,96.18c-18.23,17.43 -46.31,41.86 -46.31,67.69l0,21.37l-85.5,0l0,-21.37c0,-26.1 -28.19,-50.58 -46.31,-67.69c-25.11,-23.69 -39.19,-58.92 -39.19,-96.18l0,-0.79a128.25061,128.25061 0 0 1 256.5,0.79z"/>
  <path fill="#3f3d56" d="m223.24697,451.51a3,3 0 0 1 -3,-3l0,-21.374c0,-25.125 24.779,-48.58 42.873,-65.706c1.5,-1.422 2.961,-2.8 4.363,-4.145c25.029,-23.928 38.259,-56.437 38.259,-94.014c0,-70.229 -55.013,-125.243 -125.242,-125.243l-0.354,0a125.03,125.03 0 0 0 -124.889,124.538l0,0.7c0,36.8 13.939,71.063 38.245,94.007c1.231,1.163 2.51,2.36 3.823,3.589c18.327,17.159 43.427,40.658 43.427,66.275l0,21.373a3,3 0 0 1 -6,0l0,-21.374c0,-23.015 -24,-45.486 -41.528,-61.9q-1.9785,-1.851 -3.841,-3.605c-25.5,-24.072 -40.126,-59.924 -40.126,-98.364l0,-0.72c0.2,-72.045 58.885,-130.523 130.88,-130.523l0.371,0a130.557,130.557 0 0 1 131.23407,129.87639q0.00357,0.68526 -0.00006,1.3706c0,39.255 -13.871,73.264 -40.112,98.351c-1.409,1.347 -2.876,2.736 -4.386,4.165c-17.3,16.377 -41,38.806 -41,61.349l0,21.374a3,3 0 0 1 -3,3l0.00299,0.00001z" data-name="Path 2546" id="ecc2cf6c-8ee8-498c-972d-3c77e28b77e9-597"/>
  <path fill="#bf3412" d="m208.99897,490.005l-57,0a5,5 0 1 1 0,-10l57,0a5,5 0 0 1 0,10z" data-name="Path 2547" id="b22bef41-3cd7-4c1e-881c-c9a642005cb0-598"/>
  <path id="svg_3" fill="#3f3d56" d="m186.62788,523.50486l-12.26709,0a23.44664,23.44664 0 0 1 -12.09412,-3.35059a2.79354,2.79354 0 0 1 -1.26831,-3.21435a2.8865,2.8865 0 0 1 2.80164,-2.14209l33.38891,0a2.88664,2.88664 0 0 1 2.80176,2.14209a2.79336,2.79336 0 0 1 -1.26856,3.21435a23.44509,23.44509 0 0 1 -12.09423,3.35059z"/>
  <path id="svg_4" fill="#3f3d56" d="m209.00874,505.7988l-57.33814,-0.00634l-0.17761,-0.38086a4.726,4.726 0 0 1 0.89978,-4.05811a4.85563,4.85563 0 0 1 3.82288,-1.84863l48.55773,0a4.855,4.855 0 0 1 3.82325,1.84912a4.698,4.698 0 0 1 0.91089,4.00732l-0.09009,0.38623l-0.40869,0.05127z"/>
  <path fill="#e4e4e4" d="m47.89897,145.41099a4.98,4.98 0 0 1 -3.286,-1.233l-42.939,-37.481a5,5 0 0 1 6.576,-7.533l42.939,37.481a5,5 0 0 1 -3.29,8.767l0,-0.001z" data-name="Path 2548" id="e0eb6627-54a4-4797-861b-0d156b8b485b-599"/>
  <path fill="#e4e4e4" d="m305.97702,145.41099a5,5 0 0 1 -3.29,-8.767l42.93792,-37.484a5,5 0 0 1 6.576,7.533l-42.939,37.481a4.98,4.98 0 0 1 -3.28492,1.237z" data-name="Path 2549" id="e13fc22b-cd18-4b6e-a2d4-df4b74c6b7e7-600"/>
  <path fill="#bf3412" d="m223.24697,472.26l-85.5,0a5,5 0 0 1 0,-10l85.5,0a5,5 0 0 1 0,10z" data-name="Path 2550" id="a74da646-4683-465e-97fe-dd817e7fc328-601"/>
  <path id="svg_5" fill="#e6e6e6" d="m178.39797,341.63948l-17.78,106.87l-10.15,0l18.06,-108.51a5.00266,5.00266 0 0 1 9.87,1.64z"/>
  <path id="svg_6" fill="#e6e6e6" d="m212.56797,448.50948l-10.15,0l-17.78,-106.87a5.00266,5.00266 0 0 1 9.87,-1.64l18.06,108.51z"/>
  <path fill="#e6e6e6" d="m148.00249,338.06948a5,5 0 0 1 5,-5l54.993,0a5,5 0 0 1 0,10l-54.993,0a5,5 0 0 1 -5,-5z" data-name="Path 2551" id="be3a5c8a-fbb4-472c-819b-e8dd06032f6a-602"/>
  <path fill="#e4e4e4" d="m180.49897,95.5a5,5 0 0 1 -5,-5l0,-85.5a5,5 0 0 1 10,0l0,85.5a5,5 0 0 1 -5,5z" data-name="Path 2553" id="e9f776ed-f4b6-47dc-b212-c247d99ecb23-603"/>
  <path fill="#feb8b8" d="m589.21897,762.14901l-12.258,0l-5.832,-47.288l18.092,0l-0.002,47.288z" data-name="Path 2559" id="eba1f826-879a-4c25-b118-6bb025be95d0-604"/>
  <path fill="#2f2e41" d="m592.34602,774.03302l-39.53105,0l0,-0.5a15.387,15.387 0 0 1 15.385,-15.386l24.146,0l0.00005,15.886z" data-name="Path 2560" id="f6694a1b-3521-46e6-aa9c-51f4297aac52-605"/>
  <path fill="#feb8b8" d="m496.08197,761.74501l-11.844,-3.167l6.58,-47.19l17.48,4.674l-12.216,45.683z" data-name="Path 2561" id="fae71c2d-33fb-45f7-8331-19b4de5eddc8-606"/>
  <path fill="#2f2e41" d="m496.03297,774.03302l-38.189,-10.212l0.129,-0.483a15.387,15.387 0 0 1 18.839,-10.89l0,0l23.325,6.237l-4.104,15.348z" data-name="Path 2562" id="b3b10fd6-5fa4-49f3-8270-96ad6a3a1e0e-607"/>
  <path fill="#2f2e41" d="m596.27197,497.13701l10.269,11.931l-13.28,242.442l-28.369,0l-14.3,-186.551l-44.349,191.554l-29.492,-7.233l26.816,-243.3l92.705,-8.843z" data-name="Path 2563" id="f6267da0-acb1-421a-9dac-5a6151c1f955-608"/>
  <path fill="#e6e6e6" d="m510.42297,340.612l28.246,-14.172l43.437,0.764l37.38,19.127l-21.268,106.21798l9.187,55.38l0,0a226.53255,226.53255 0 0 1 -108.335,0.892l-0.284,-0.068s21.114,-74.916 12.126,-97.779l-0.489,-70.36198z" data-name="Path 2564" id="ea0dabd6-18d7-4484-8048-4cddc34702bd-609"/>
  <path fill="#feb8b8" d="m592.13897,284.004a31.994,31.994 0 1 0 0,0.237l0,-0.237z" data-name="Path 2565" id="a75b604a-8411-40e9-b5d3-81fba8b6e00c-610"/>
  <path fill="#feb8b8" d="m506.52497,418.05298a11.462,11.462 0 0 0 16.65,5.627l57.353,30.318l1.857,-13.971l-55.73,-32.863a11.524,11.524 0 0 0 -20.131,10.889l0.001,0z" data-name="Path 2567" id="b97e8772-edf1-4d51-bb40-aaab108bf113-611"/>
  <path fill="#feb8b8" d="m582.95397,420.46799a11.462,11.462 0 0 1 -17.478,1.848l-62.6,17.035l0.545,-17.738l62.27106,-16.173a11.524,11.524 0 0 1 17.261,15.03l0.00094,-0.002z" data-name="Path 2568" id="b7638692-4395-4c34-bc33-e4b41c888504-612"/>
  <path fill="#e6e6e6" d="m607.27997,347.09998l12.205,-0.765s14.29,18.855 6.364,39.316c0,0 1.373,73.5 -30.276,70.48s-41.65,-3.019 -41.65,-3.019l9.5,-26.5l21.253,-6.562s-6.55,-28.894 5.849,-40.916l16.755,-32.034z" data-name="Path 2569" id="fb7d8996-2760-43c1-a9a4-d402d6d3756c-613"/>
  <path fill="#e6e6e6" d="m519.14802,346.45499l-1.725,-8.843s-25.44,-0.6 -30.47,37.951c0,0 -22.877,57.692 -0.454,65.121s47.089,0 47.089,0l-1.85711,-25.444l-24.67,-5.033s12.745,-16.489 5.805,-30.792l6.28211,-32.96z" data-name="Path 2570" id="a9eb06d8-8cbf-43ab-991d-4f9eccd60edd-614"/>
  <path fill="#2f2e41" d="m571.22242,299.71458c-2.35273,-0.92321 -4.95894,-0.87527 -7.44567,-1.33105c-8.89342,-1.63849 -15.75239,-10.70648 -14.90781,-19.70962a10.84778,10.84778 0 0 0 0.05763,-3.5329c-0.61621,-2.569 -3.47169,-3.94789 -6.09484,-4.25558s-5.33331,0.086 -7.885,-0.59694c-3.93954,-1.05505 -6.883,-4.64835 -7.88062,-8.603a19.487,19.487 0 0 1 1.267,-11.96329l1.22416,2.55209a9.91759,9.91759 0 0 0 2.5062,-4.85275a6.25462,6.25462 0 0 1 5.16622,3.27253c1.58106,0.70614 1.388,-2.90614 2.96395,-3.621a2.95887,2.95887 0 0 1 2.10019,0.27339c3.47269,1.16515 7.156,-0.583 10.59739,-1.83576a40.41732,40.41732 0 0 1 18.64164,-2.13018c4.18269,0.51056 8.40506,1.74686 11.66025,4.41951a26.60667,26.60667 0 0 1 6.156,8.27393c4.017,7.50846 7.04316,15.79159 6.96075,24.30956a35.29808,35.29808 0 0 1 -6.1645,19.5192c-2.052,2.98581 -8.67978,13.34292 -13.08484,12.20287c-5.53386,-1.42911 0.78679,-9.79264 -5.8381,-12.39101z" data-name="Path 2387" id="ba7ab43e-494b-455d-a87f-0e0f24cb0a47-615"/>
 </g>
</svg>